<svg width="56" height="20" viewBox="0 0 56 20" fill="none" xmlns="http://www.w3.org/2000/svg">
<path d="M12.1666 10H2.83331M2.83331 10L6.33331 13.5M2.83331 10L6.33331 6.5" stroke="#C2C2C2" stroke-width="2" stroke-linecap="round" stroke-linejoin="round"/>
<path d="M23.685 15V4.81818H27.4137C28.1362 4.81818 28.7345 4.9375 29.2085 5.17614C29.6824 5.41146 30.0371 5.7313 30.2724 6.13565C30.5077 6.53669 30.6254 6.98911 30.6254 7.4929C30.6254 7.91714 30.5475 8.27509 30.3917 8.56676C30.2359 8.85511 30.0271 9.08712 29.7653 9.26278C29.5067 9.43513 29.2217 9.56108 28.9102 9.64062V9.74006C29.2482 9.75663 29.578 9.866 29.8995 10.0682C30.2243 10.267 30.4928 10.5504 30.7049 10.9183C30.917 11.2862 31.0231 11.7337 31.0231 12.2607C31.0231 12.781 30.9004 13.2483 30.6552 13.6626C30.4132 14.0736 30.0387 14.4001 29.5316 14.642C29.0245 14.8807 28.3765 15 27.5877 15H23.685ZM25.2212 13.6825H27.4386C28.1744 13.6825 28.7013 13.54 29.0195 13.255C29.3377 12.9699 29.4968 12.6136 29.4968 12.1861C29.4968 11.8646 29.4156 11.5696 29.2532 11.3011C29.0908 11.0327 28.8588 10.8189 28.5572 10.6598C28.2589 10.5007 27.9042 10.4212 27.4933 10.4212H25.2212V13.6825ZM25.2212 9.22301H27.2795C27.6242 9.22301 27.9341 9.15672 28.2092 9.02415C28.4876 8.89157 28.708 8.70597 28.8704 8.46733C29.0361 8.22538 29.119 7.94034 29.119 7.61222C29.119 7.19129 28.9715 6.8383 28.6765 6.55327C28.3815 6.26823 27.9291 6.12571 27.3192 6.12571H25.2212V9.22301ZM34.9482 15.169C34.4643 15.169 34.0268 15.0795 33.6357 14.9006C33.2446 14.7183 32.9347 14.4548 32.706 14.1101C32.4806 13.7654 32.3679 13.3428 32.3679 12.8423C32.3679 12.4115 32.4508 12.0568 32.6165 11.7784C32.7822 11.5 33.0059 11.2796 33.2876 11.1172C33.5694 10.9548 33.8842 10.8321 34.2322 10.7493C34.5803 10.6664 34.9349 10.6035 35.2962 10.5604C35.7536 10.5073 36.1248 10.4643 36.4098 10.4311C36.6948 10.3946 36.902 10.3366 37.0312 10.2571C37.1605 10.1776 37.2251 10.0483 37.2251 9.86932V9.83452C37.2251 9.40033 37.1025 9.06392 36.8572 8.82528C36.6153 8.58665 36.254 8.46733 35.7734 8.46733C35.273 8.46733 34.8786 8.57836 34.5902 8.80043C34.3052 9.01918 34.108 9.26278 33.9986 9.53125L32.6016 9.21307C32.7673 8.74905 33.0092 8.37453 33.3274 8.08949C33.6489 7.80114 34.0185 7.59233 34.4361 7.46307C34.8537 7.33049 35.2929 7.2642 35.7536 7.2642C36.0585 7.2642 36.3816 7.30066 36.723 7.37358C37.0677 7.44318 37.3892 7.57244 37.6875 7.76136C37.9891 7.95028 38.236 8.22041 38.4283 8.57173C38.6205 8.91974 38.7166 9.37216 38.7166 9.92898V15H37.2649V13.956H37.2053C37.1091 14.1482 36.965 14.3371 36.7727 14.5227C36.5805 14.7083 36.3336 14.8625 36.032 14.9851C35.7304 15.1077 35.3691 15.169 34.9482 15.169ZM35.2713 13.9759C35.6823 13.9759 36.0336 13.8946 36.3253 13.7322C36.6203 13.5698 36.844 13.3577 36.9964 13.0959C37.1522 12.8307 37.2301 12.5473 37.2301 12.2457V11.2614C37.1771 11.3144 37.0743 11.3641 36.9219 11.4105C36.7727 11.4536 36.602 11.4917 36.4098 11.5249C36.2176 11.5547 36.0303 11.5829 35.848 11.6094C35.6657 11.6326 35.5133 11.6525 35.3906 11.669C35.1023 11.7055 34.8388 11.7668 34.6001 11.853C34.3648 11.9392 34.1759 12.0634 34.0334 12.2259C33.8942 12.3849 33.8246 12.5971 33.8246 12.8622C33.8246 13.2301 33.9605 13.5085 34.2322 13.6974C34.504 13.883 34.8504 13.9759 35.2713 13.9759ZM43.9132 15.1541C43.1741 15.1541 42.5377 14.9867 42.0041 14.652C41.4738 14.3139 41.0661 13.8482 40.7811 13.255C40.496 12.6617 40.3535 11.9822 40.3535 11.2166C40.3535 10.4411 40.4993 9.75663 40.791 9.16335C41.0827 8.56676 41.4937 8.10109 42.024 7.76633C42.5543 7.43158 43.179 7.2642 43.8983 7.2642C44.4783 7.2642 44.9953 7.37192 45.4494 7.58736C45.9035 7.79948 46.2697 8.09777 46.5481 8.48224C46.8298 8.86671 46.9972 9.31581 47.0502 9.82955H45.6035C45.524 9.47159 45.3417 9.16335 45.0566 8.90483C44.7749 8.64631 44.3971 8.51705 43.9231 8.51705C43.5088 8.51705 43.1459 8.62642 42.8343 8.84517C42.5261 9.06061 42.2858 9.36884 42.1135 9.76989C41.9411 10.1676 41.8549 10.6383 41.8549 11.1818C41.8549 11.7386 41.9395 12.2192 42.1085 12.6236C42.2775 13.0279 42.5162 13.3411 42.8244 13.5632C43.1359 13.7853 43.5022 13.8963 43.9231 13.8963C44.2048 13.8963 44.46 13.8449 44.6887 13.7422C44.9208 13.6361 45.1146 13.4853 45.2704 13.2898C45.4295 13.0942 45.5405 12.8589 45.6035 12.5838H47.0502C46.9972 13.0777 46.8365 13.5185 46.568 13.9062C46.2995 14.294 45.9399 14.599 45.4892 14.821C45.0417 15.0431 44.5164 15.1541 43.9132 15.1541ZM50.0071 12.4098L49.9972 10.5952H50.2557L53.2983 7.36364H55.0781L51.608 11.0426H51.3743L50.0071 12.4098ZM48.6399 15V4.81818H50.1264V15H48.6399ZM53.4624 15L50.728 11.3707L51.7521 10.3317L55.2869 15H53.4624Z" fill="#C2C2C2"/>
</svg>
