<svg width="61" height="55" viewBox="0 0 61 55" fill="none" xmlns="http://www.w3.org/2000/svg">
<rect width="60" height="55" transform="translate(0.309082)" fill="#191726"/>
<path d="M21.3091 25.8C21.3091 24.1198 21.3091 23.2798 21.6361 22.638C21.9237 22.0735 22.3826 21.6146 22.9471 21.327C23.5888 21 24.4289 21 26.1091 21H34.5091C36.1892 21 37.0293 21 37.6711 21.327C38.2355 21.6146 38.6945 22.0735 38.9821 22.638C39.3091 23.2798 39.3091 24.1198 39.3091 25.8V31.2C39.3091 32.8802 39.3091 33.7202 38.9821 34.362C38.6945 34.9265 38.2355 35.3854 37.6711 35.673C37.0293 36 36.1892 36 34.5091 36H31.9928C31.3688 36 31.0568 36 30.7583 36.0613C30.4935 36.1156 30.2373 36.2055 29.9966 36.3285C29.7253 36.4671 29.4816 36.662 28.9943 37.0518L26.6088 38.9602C26.1928 39.2931 25.9847 39.4595 25.8096 39.4597C25.6574 39.4599 25.5133 39.3906 25.4183 39.2716C25.3091 39.1348 25.3091 38.8684 25.3091 38.3355V36C24.3791 36 23.9141 36 23.5326 35.8978C22.4973 35.6204 21.6887 34.8117 21.4113 33.7765C21.3091 33.395 21.3091 32.93 21.3091 32V25.8Z" stroke="#CFCFCF" stroke-width="2" stroke-linecap="round" stroke-linejoin="round"/>
<circle cx="40.3091" cy="20" r="4" fill="#DB383E"/>
</svg>
