<svg width="251" height="42" viewBox="0 0 251 42" fill="none" xmlns="http://www.w3.org/2000/svg">
<path d="M33.4 15.9048C33.4 16.0952 33.4 16.2857 33.4 16.4762C33.35 17.6667 33.2 18.8571 32.85 20C32.2 22.3809 30.9 24.619 29.2 26.4762L27.85 27.7619C25.9 29.381 23.55 30.619 21.05 31.2381C19.85 31.5238 18.6 31.7143 17.35 31.7619C17.15 31.7619 16.95 31.7619 16.75 31.7619C16.2 31.7619 15.6 31.7143 15.05 31.6667L29 18.381C29.25 18.1429 29.4 17.8095 29.45 17.4286C29.45 17.0476 29.3 16.6667 29.05 16.4286C28.75 16.1429 28.35 16 27.95 16C27.55 16 27.2 16.1429 26.9 16.4286L0.0499954 42V33.7619L25.85 9.19048C26.15 8.90476 26.3 8.57143 26.3 8.19048C26.3 7.80953 26.15 7.47619 25.85 7.19048C25.55 6.90476 25.2 6.76191 24.8 6.76191C24.4 6.76191 24.05 6.90476 23.75 7.19048L0.0499954 29.7619V21.5238L16.15 6.19048C16.6 5.7619 16.7 5.19048 16.45 4.66667C16.2 4.14286 15.7 3.80952 15.1 3.80952H15.05C14.7 3.80952 14.35 3.95238 14.05 4.2381L0.0999985 17.5238C0.0499985 17 0 16.4762 0 15.9048C0 15.7143 0 15.5238 0 15.2857C0.05 14.0952 0.249995 12.9048 0.549995 11.7619C1.25 9.19048 2.65 6.85714 4.6 4.90476L5.14999 4.38096C7.14999 2.57143 9.65 1.19048 12.35 0.523812C13.55 0.238098 14.8 0.047619 16.05 0C16.25 0 16.45 0 16.7 0C17.5 0 18.3 0.0476205 19.05 0.142859C19.9 0.238097 20.8 0.428576 21.6 0.666671C22.4 0.904766 23.15 1.19048 23.85 1.52382C24.55 1.85715 25.2 2.19048 25.85 2.61905C26.45 3 27.05 3.42858 27.65 3.90477C28.2 4.38096 28.75 4.90476 29.2 5.38095C29.7 5.90476 30.15 6.47619 30.55 7.09524C30.95 7.71429 31.35 8.33334 31.7 9C32.05 9.71429 32.35 10.4286 32.6 11.1429C32.85 11.9524 33.05 12.7619 33.2 13.5714C33.35 14.381 33.4 15.1429 33.4 15.9048Z" fill="url(#paint0_linear_1_1004)"/>
<path d="M33.4 15.9048C33.4 16.0952 33.4 16.2857 33.4 16.4762C33.35 17.6667 33.2 18.8571 32.85 20C32.2 22.3809 30.9 24.619 29.2 26.4762L27.85 27.7619C25.9 29.381 23.55 30.619 21.05 31.2381C19.85 31.5238 18.6 31.7143 17.35 31.7619C17.15 31.7619 16.95 31.7619 16.75 31.7619C16.2 31.7619 15.6 31.7143 15.05 31.6667L29 18.381C29.25 18.1429 29.4 17.8095 29.45 17.4286C29.45 17.0476 29.3 16.6667 29.05 16.4286C28.75 16.1429 28.35 16 27.95 16C27.55 16 27.2 16.1429 26.9 16.4286L0.0499954 42V33.7619L25.85 9.19048C26.15 8.90476 26.3 8.57143 26.3 8.19048C26.3 7.80953 26.15 7.47619 25.85 7.19048C25.55 6.90476 25.2 6.76191 24.8 6.76191C24.4 6.76191 24.05 6.90476 23.75 7.19048L0.0499954 29.7619V21.5238L16.15 6.19048C16.6 5.7619 16.7 5.19048 16.45 4.66667C16.2 4.14286 15.7 3.80952 15.1 3.80952H15.05C14.7 3.80952 14.35 3.95238 14.05 4.2381L0.0999985 17.5238C0.0499985 17 0 16.4762 0 15.9048C0 15.7143 0 15.5238 0 15.2857C0.05 14.0952 0.249995 12.9048 0.549995 11.7619C1.25 9.19048 2.65 6.85714 4.6 4.90476L5.14999 4.38096C7.14999 2.57143 9.65 1.19048 12.35 0.523812C13.55 0.238098 14.8 0.047619 16.05 0C16.25 0 16.45 0 16.7 0C17.5 0 18.3 0.0476205 19.05 0.142859C19.9 0.238097 20.8 0.428576 21.6 0.666671C22.4 0.904766 23.15 1.19048 23.85 1.52382C24.55 1.85715 25.2 2.19048 25.85 2.61905C26.45 3 27.05 3.42858 27.65 3.90477C28.2 4.38096 28.75 4.90476 29.2 5.38095C29.7 5.90476 30.15 6.47619 30.55 7.09524C30.95 7.71429 31.35 8.33334 31.7 9C32.05 9.71429 32.35 10.4286 32.6 11.1429C32.85 11.9524 33.05 12.7619 33.2 13.5714C33.35 14.381 33.4 15.1429 33.4 15.9048Z" fill="url(#paint1_linear_1_1004)"/>
<path d="M65.4686 18.3935C65.4686 22.2727 62.4138 24.6972 57.5406 24.6972H53.8311V29.4769H49.6125V12.0206H57.5406C62.4138 12.0899 65.4686 14.4451 65.4686 18.3935ZM61.1773 18.3935C61.1773 16.4539 59.8681 15.3456 57.2497 15.3456H53.7584V21.3722H57.2497C59.8681 21.3722 61.1773 20.2638 61.1773 18.3935Z" fill="white"/>
<path d="M68.9598 12.0899H73.1784V29.5461H68.9598V12.0899Z" fill="white"/>
<path d="M76.8878 20.818C76.8878 15.6227 81.1064 11.8128 86.9252 11.8128C92.6712 11.8128 96.9625 15.6227 96.9625 20.818C96.9625 26.0133 92.6712 29.8232 86.9252 29.8232C81.1064 29.8232 76.8878 25.944 76.8878 20.818ZM92.5985 20.818C92.5985 17.493 90.1255 15.207 86.8524 15.207C83.5794 15.207 81.1064 17.493 81.1064 20.818C81.1064 24.143 83.5794 26.4289 86.8524 26.4289C90.1982 26.3597 92.5985 24.0737 92.5985 20.818Z" fill="white"/>
<path d="M117.401 12.0899V29.5461H113.91L104.745 18.9477V29.5461H100.526V12.0899H104.018L113.11 22.6883V12.0899H117.401Z" fill="white"/>
<path d="M136.457 26.2904V29.5461H122.274V12.0899H136.094V15.3456H126.493V19.1555H135.003V22.2727H126.493V26.2904H136.457Z" fill="white"/>
<path d="M154.641 26.2904V29.5461H140.458V12.0899H154.277V15.3456H144.676V19.1555H153.186V22.2727H144.676V26.2904H154.641Z" fill="white"/>
<path d="M170.352 29.4769L166.788 24.6279H166.569H162.86V29.4769H158.641V12.0206H166.569C171.443 12.0206 174.497 14.4451 174.497 18.3242C174.497 20.9565 173.115 22.8961 170.715 23.8659L174.861 29.4769H170.352ZM166.351 15.3456H162.86V21.4414H166.351C168.97 21.4414 170.279 20.2638 170.279 18.3935C170.279 16.4539 168.97 15.3456 166.351 15.3456Z" fill="white"/>
<path d="M197.627 29.4769V14.5144L189.99 27.1217H189.335L181.698 14.5836V29.4769H180.389V12.0206H181.48L189.699 25.5284L197.918 12.0206H199.009V29.4769H197.627Z" fill="white"/>
<path d="M205.191 12.0899H206.5V29.5461H205.191V12.0899Z" fill="white"/>
<path d="M227.594 12.0899V29.5461H226.503L213.992 14.3758V29.5461H212.683V12.0899H213.774L226.212 27.2602V12.0899H227.594Z" fill="white"/>
<path d="M233.776 12.0899H241.049C246.868 12.0899 250.796 15.7612 250.796 20.818C250.796 25.8748 246.868 29.5461 241.049 29.5461H233.776V12.0899ZM240.977 28.3685C246.141 28.3685 249.487 25.2513 249.487 20.818C249.487 16.3847 246.141 13.2675 240.977 13.2675H235.158V28.3685H240.977Z" fill="white"/>
<defs>
<linearGradient id="paint0_linear_1_1004" x1="0" y1="42" x2="33.4" y2="42" gradientUnits="userSpaceOnUse">
<stop stop-color="#6FEACC"/>
<stop offset="1" stop-color="#FDFF9B"/>
</linearGradient>
<linearGradient id="paint1_linear_1_1004" x1="0" y1="42" x2="33.4" y2="42" gradientUnits="userSpaceOnUse">
<stop stop-color="#6FEACC"/>
<stop offset="1" stop-color="#FDFF9B"/>
</linearGradient>
</defs>
</svg>
